<?xml version="1.0" encoding="iso-8859-1"?>
<!-- Generator: Adobe Illustrator 19.2.1, SVG Export Plug-In . SVG Version: 6.00 Build 0)  -->
<svg version="1.1" xmlns="http://www.w3.org/2000/svg" xmlns:xlink="http://www.w3.org/1999/xlink" x="0px" y="0px"
	 viewBox="0 0 250 250" style="enable-background:new 0 0 250 250;" xml:space="preserve">
<g id="Layer_1">
</g>
<g id="Layer_2">
</g>
<g id="Layer_3">
	<g>
		<path style="fill:#FF0000;" d="M94.25,111.675V18.766h37.818c3.75,0,7.24,0.808,10.469,2.421c3.227,1.615,5.997,3.752,8.31,6.412
			c2.31,2.662,4.122,5.672,5.43,9.029c1.309,3.359,1.963,6.784,1.963,10.272c0,3.578-0.568,7.023-1.701,10.338
			c-1.135,3.316-2.748,6.261-4.841,8.833c-2.094,2.574-4.603,4.668-7.524,6.281c-2.924,1.615-6.13,2.552-9.618,2.813l23.554,36.51
			h-3.14l-23.555-36.51H96.867v36.51H94.25z M96.867,72.548h36.117c3.488,0,6.629-0.74,9.422-2.225
			c2.791-1.482,5.169-3.422,7.132-5.823c1.963-2.397,3.468-5.124,4.515-8.178c1.047-3.053,1.57-6.193,1.57-9.422
			c0-3.314-0.612-6.498-1.832-9.552c-1.223-3.053-2.901-5.758-5.038-8.113c-2.139-2.355-4.646-4.253-7.524-5.692
			s-5.934-2.159-9.16-2.159H96.867V72.548z"/>
	</g>
	<g>
		<path style="fill:#13FF00;" d="M90.056,176.795v44.23h-2.617v-15.834c-4.449,5.234-9.553,9.291-15.31,12.17
			c-5.758,2.879-11.822,4.318-18.189,4.318c-6.457,0-12.366-1.374-17.731-4.122s-9.99-6.347-13.871-10.796
			c-3.883-4.449-6.893-9.487-9.029-15.114c-2.139-5.627-3.206-11.319-3.206-17.077c0-6.019,1.047-11.862,3.141-17.534
			c2.094-5.67,4.993-10.708,8.702-15.114c3.707-4.404,8.156-7.917,13.347-10.534c5.189-2.617,10.882-3.926,17.077-3.926
			c4.797,0,9.072,0.503,12.824,1.505c3.75,1.004,7.066,2.4,9.945,4.188c2.878,1.789,5.342,3.926,7.393,6.412
			c2.049,2.486,3.815,5.214,5.3,8.179l-2.486,0.785c-3.578-6.543-8.158-11.254-13.74-14.133c-5.584-2.879-11.996-4.318-19.236-4.318
			c-6.107,0-11.604,1.288-16.488,3.86c-4.887,2.574-9.052,5.954-12.497,10.142c-3.447,4.188-6.085,8.943-7.917,14.264
			c-1.832,5.322-2.748,10.73-2.748,16.226c0,5.846,1.067,11.45,3.206,16.815c2.137,5.365,5.081,10.099,8.833,14.198
			c3.75,4.102,8.113,7.373,13.085,9.814c4.973,2.443,10.338,3.664,16.096,3.664c2.965,0,6.236-0.458,9.814-1.374
			c3.576-0.916,6.979-2.225,10.207-3.926c3.226-1.701,6.062-3.75,8.505-6.15c2.441-2.398,4.1-5.081,4.973-8.048v-20.152H65.585
			v-2.617H90.056z"/>
	</g>
	<g>
		<path style="fill:#0055FF;" d="M239.246,196.947c-0.176,3.229-0.873,6.281-2.094,9.16c-1.223,2.879-2.858,5.431-4.907,7.655
			c-2.051,2.225-4.472,3.991-7.263,5.3c-2.793,1.309-5.758,1.963-8.898,1.963h-43.052v-92.909h41.089
			c3.227,0,6.15,0.699,8.768,2.094c2.617,1.396,4.842,3.206,6.674,5.431s3.249,4.756,4.253,7.59
			c1.001,2.836,1.504,5.692,1.504,8.571c0,4.711-1.2,9.029-3.598,12.955c-2.401,3.926-5.649,6.805-9.749,8.636
			c2.617,0.785,4.993,1.963,7.132,3.533c2.137,1.57,3.968,3.402,5.496,5.496c1.525,2.094,2.682,4.384,3.467,6.87
			S239.246,194.33,239.246,196.947z M175.649,130.733v42.136h37.687c2.879,0,5.496-0.608,7.852-1.831
			c2.355-1.221,4.384-2.834,6.085-4.842c1.701-2.006,3.03-4.253,3.991-6.739c0.959-2.486,1.439-5.038,1.439-7.655
			c0-2.791-0.458-5.451-1.374-7.982c-0.916-2.529-2.182-4.754-3.795-6.674c-1.615-1.918-3.578-3.445-5.889-4.58
			c-2.312-1.133-4.821-1.744-7.524-1.832H175.649z M236.628,196.947c0-2.791-0.503-5.474-1.504-8.048
			c-1.004-2.572-2.378-4.862-4.122-6.87c-1.747-2.006-3.817-3.599-6.216-4.776c-2.4-1.178-4.995-1.767-7.786-1.767h-41.351v42.922
			h40.435c2.879,0,5.562-0.609,8.048-1.832c2.486-1.221,4.666-2.834,6.543-4.842c1.875-2.006,3.337-4.296,4.384-6.87
			C236.105,202.292,236.628,199.652,236.628,196.947z"/>
	</g>
	<g>
	</g>
	<g>
	</g>
	<g>
	</g>
	<g>
	</g>
	<g>
	</g>
	<g>
	</g>
</g>
</svg>
